<?xml version="1.0" encoding="iso-8859-1"?>
<!-- Uploaded to: SVG Repo, www.svgrepo.com, Generator: SVG Repo Mixer Tools -->
<!DOCTYPE svg PUBLIC "-//W3C//DTD SVG 1.1//EN" "http://www.w3.org/Graphics/SVG/1.1/DTD/svg11.dtd">
<svg fill="#009FEB" height="800px" width="800px" version="1.1" id="Capa_1" xmlns="http://www.w3.org/2000/svg" xmlns:xlink="http://www.w3.org/1999/xlink" 
	 viewBox="0 0 263.606 263.606" xml:space="preserve">
<g>
	<path d="M115.724,156.803c0,5.873,4.079,10.993,8.079,13.648v-27.296C119.803,145.809,115.724,150.93,115.724,156.803z"/>
	<path d="M195.813,93.384l-32.009-33.276c-1.413-1.456-3.291-2.501-5.319-2.501h-17.682V9c0-4.971-4.029-9-9-9c-4.971,0-9,4.029-9,9
		v48.606h-16.846c-2.021,0-3.958,1.039-5.369,2.486L68.141,93.262c-1.367,1.4-2.337,3.391-2.337,5.348v157.544
		c0,1.989,0.998,3.874,2.404,5.281c1.406,1.405,3.52,2.172,5.508,2.172c0.001,0,0.002,0,0.003,0l116.715-0.023
		c4.141-0.002,7.37-3.336,7.37-7.477V98.606C197.803,96.656,197.17,94.783,195.813,93.384z M122.803,68.722v13.39
		c0,4.971,4.029,9,9,9c4.971,0,9-4.029,9-9v-13.39c5,2.891,7.224,7.769,7.224,13.29c0,8.854-7.12,16.058-15.974,16.058
		c-8.855,0-16.182-7.203-16.182-16.058C115.87,76.49,118.803,71.612,122.803,68.722z M161.882,202.962
		c0,14.274-9.079,26.293-23.079,29.646v3.012c0,4.143-3.357,7.5-7.5,7.5c-4.143,0-7.5-3.357-7.5-7.5v-3.012
		c-13-3.353-22.725-15.371-22.725-29.646c0-4.143,3.628-7.5,7.771-7.5c4.143,0,7.25,3.357,7.25,7.5
		c0,5.873,3.704,10.993,7.704,13.647v-30.16c-13-3.353-23.079-15.371-23.079-29.646c0-14.274,10.079-26.293,23.079-29.646v-3.012
		c0-4.143,3.357-7.5,7.5-7.5c4.143,0,7.5,3.357,7.5,7.5v3.012c14,3.353,23.433,15.371,23.433,29.646c0,4.143-3.087,7.5-7.229,7.5
		c-4.143,0-7.75-3.357-7.75-7.5c0-5.873-3.454-10.993-8.454-13.648v30.161C152.803,176.669,161.882,188.688,161.882,202.962z"/>
	<path d="M138.803,216.609c5-2.654,8.079-7.774,8.079-13.647c0-5.873-3.079-10.993-8.079-13.647V216.609z"/>
</g>
</svg>